<svg viewBox="0 0 120 120" fill="none" xmlns="http://www.w3.org/2000/svg">
  <path d="M60 10L100 33V79L60 110L20 79V33L60 10Z" stroke="url(#m1)" stroke-width="2" fill="none"></path>
  <path d="M60 26L88 42V70L60 90L32 70V42L60 26Z" stroke="url(#m2)" stroke-width="1" fill="none" opacity="0.35"></path>
  <path d="M60 28L86 43V69L60 88L34 69V43L60 28Z" fill="url(#m3)" opacity="0.06"></path>
  <path d="M44 68L60 38L76 68H44Z" fill="url(#m4)"></path>
  <path d="M50 68L60 46L70 68H50Z" fill="none" stroke="#E2C97E" stroke-width="0.6" opacity="0.4"></path>
  <line x1="60" y1="38" x2="60" y2="22" stroke="url(#m5)" stroke-width="1" opacity="0.35"></line>
  <defs>
    <linearGradient id="m1" x1="20" y1="10" x2="100" y2="110"><stop stop-color="#C9A84C"></stop><stop offset="1" stop-color="#9A7B2E"></stop></linearGradient>
    <linearGradient id="m2" x1="32" y1="26" x2="88" y2="90"><stop stop-color="#C9A84C" stop-opacity="0.6"></stop><stop offset="1" stop-color="#E2C97E" stop-opacity="0.1"></stop></linearGradient>
    <linearGradient id="m3" x1="34" y1="28" x2="86" y2="88"><stop stop-color="#C9A84C"></stop><stop offset="1" stop-color="#C9A84C" stop-opacity="0"></stop></linearGradient>
    <linearGradient id="m4" x1="44" y1="38" x2="76" y2="68"><stop stop-color="#E2C97E"></stop><stop offset="1" stop-color="#C9A84C"></stop></linearGradient>
    <linearGradient id="m5" x1="60" y1="22" x2="60" y2="38"><stop stop-color="#C9A84C" stop-opacity="0"></stop><stop offset="1" stop-color="#C9A84C"></stop></linearGradient>
  </defs>
</svg>